<svg xmlns="http://www.w3.org/2000/svg" viewBox="0 0 70.906 71"><path d="M37.2,3.611c-.74.19-1.9,1.181-2.582.61C35.19,4.2,37.641,2.73,36.7,2.545c-.795.573-1.576,1.406-2.617,1.4-.577-.177,2.2-1.412,2.332-2.436-.894.278-1.836,1.664-2.881,2.084-.247-1.017,1.384-2.227,1.839-3.107C34.308.421,33.831,2.25,33.206,2.975c-.736-.7.933-2.11,1.1-2.975a3.3,3.3,0,0,0-1.564,2.561c-.586-.109-.22-1.848.066-2.373-1.409.556-.544,2.889.274,3.759C34.13,4.825,36.643,5.183,37.2,3.611Z"/><path d="M69.861,39.2c-.331.12-2.091.115-1.595-.135,1.987-.187,4.185-2.469.4-.41-.4-.012-.784.323-1.074-.047a4.73,4.73,0,0,0,1.706-.964c.92-.356,1.648-1.763.216-.55-.568.244-1.927,1.622-2.349,1.053,0-.769,2.765-2.542,2.059-2.753-.813.15-2.614,3.261-2.265,1.847.1-.928,1.148-1.5,1.405-2.256-.378-.256-.734.46-.974.692a4.23,4.23,0,0,0-.7,1.309c-.337.771-.228-.175-.337-.531.215-.57.108-.915-.211-.188-.56,2.5,2.785,4.42,4.766,2.8C70.928,38.235,70.271,39.3,69.861,39.2Z"/><path d="M67.233,51.215a1.775,1.775,0,0,1-1.309.1c-2.745-.2,1.8-.61,2.251-1.32-.253-.483-1,.259-1.44.293-.3.124-.852.026-.935.411-2.845.075.829-1.531,1.713-2.006.181-.94-2.513,1.051-2.968,1.258.17-1.2,1.854-1.517,2.313-2.312-.943-.022-1.974.994-2.484,1.8-.7-1.255,2.408-2.69.829-2.458-1.289.719-1.272,2.66-1.163,3.763a2.914,2.914,0,0,0-2.266.687A44.237,44.237,0,0,1,41.688,54.3a44.3,44.3,0,0,1-5.807-1.177,12.01,12.01,0,0,1-2.117-.791c-.455.156-.739-.383-1.157-.264a5.5,5.5,0,0,0-2.255-1.049c-.223.22-.238.085-.329-.122-.3-.526-1-.666-1.361-1.035.043-.194.086-.444.152-.679l1.9.314a.313.313,0,0,0-.079.29c-.085.621.869.358,1.114.244.063.183.231.435.489.387.372-.139.461-.388.412-.6l.5.082a.453.453,0,0,0,.423.665c.269.046.449-.245.464-.518l.3.05a.689.689,0,0,0,.673.944.728.728,0,0,0,.64-.727l.5.081a.957.957,0,1,0,1.873.31l.786.13a1.617,1.617,0,0,0-.073.557,2.06,2.06,0,0,0,1.508,1.416c.639-.591,1.446-.6,1.412-1.8.035-1.867-2.331-1.637-2.829-.24l-.778-.166c0-.009.005-.015.006-.025.217-1.19-1.427-1.288-1.829-.362l-.592-.126a.566.566,0,0,0-.613-.472.619.619,0,0,0-.548.225l-.525-.111a.3.3,0,0,0-.18-.114.517.517,0,0,0-.323.007l-4.4-.937a.52.52,0,0,1,.553-.23,27.46,27.46,0,0,0,7.022.57,6.8,6.8,0,0,0,2.572.06,8.565,8.565,0,0,0,3.283-.241c3.847.208,8.575-1.236,12.383-2.493a36.365,36.365,0,0,0,8.2-4.224c1.139-1,3.512-1.907,3.706-3.537-1.193.023-1.858,1.378-2.785,2a42.748,42.748,0,0,1-3.784,2.437,35.447,35.447,0,0,1-14.456,4.751,44.561,44.561,0,0,1-8.007.657c-.767-.1-7.969-.115-8.521-1.018l.976-.16a.206.206,0,0,0,.077.11c.27.276.818-.065.724-.242l.288-.047c.02.055.076.094.2.086.1.024.164-.055.185-.149l.279-.045a.148.148,0,0,0,.108-.018l.237-.039c.065.051.133.093.192-.032l.225-.037a.165.165,0,0,0,.228-.037l.183-.03c.072.164.37.113.4-.066l.206-.034c.052.261.4.119.464-.077l.139-.022a.2.2,0,0,0,.019.1c.166.226.415.016.452-.174l.162-.026a.242.242,0,0,0-.029.112c-.02.467.7.239.534-.143-.01-.023-.031-.027-.045-.045l.182-.03c-.079.3.153.7.541.442a.448.448,0,0,0,.13-.552l.27-.045a.554.554,0,0,0-.042.15c.042.638,1.134.715,1.085-.021a.553.553,0,0,0-.075-.288l.409-.067a.65.65,0,0,0,.689.838c.578.06.872-.571.778-1.079l.494-.081c-.146,1.579,2.241,1.518,2.266-.065.187-1.578-1.967-1.493-2.23-.183a1.765,1.765,0,0,0-.03.206l-.517.066a.771.771,0,0,0-.174-.347.862.862,0,0,0-1.241.528l-.527.068a.574.574,0,0,0-.785.1l-.558.072c-.031-.009-.048-.032-.085-.033a.424.424,0,0,0-.247.076l-1.109.141a.315.315,0,0,0-.051-.013.192.192,0,0,0-.136.038l-.376.048c-.007-.005-.008-.01-.016-.014a.35.35,0,0,0-.3.054l-.291.037a.236.236,0,0,0-.339.044l-.2.025a.206.206,0,0,0-.264.034l-.208.026a.151.151,0,0,0-.1-.068.959.959,0,0,0-.077.091l-2.839.364a3.647,3.647,0,0,1,.72-.368A58.577,58.577,0,0,0,40.726,43.9a61.893,61.893,0,0,0,16.517-8.378c1.2-1.084,3.052-2.161,3.706-3.46.389.345,4.738-4.028,3.165-3.867-1.825,1.415-2.9,3.376-4.818,4.621-6.549,5.807-14.306,9.145-22.642,11.623-1.707.536-3.509.809-5.262,1.252-2.026.356-2.051.648-2.611-.538l1.109-.465c.376.174.92.076.944-.4l.419-.176c.361.563,1.322.218,1.359-.569l.816-.342c.331.824,1.711.3,1.556-.652l.668-.28a1.021,1.021,0,0,0,1.921-.61c.153-1.217-1.59-1.077-1.9-.187a1.125,1.125,0,0,0-.035.759l-.667.247a1.1,1.1,0,0,0-.055-.178.827.827,0,0,0-1.555.428,1.223,1.223,0,0,0,.033.335l-.783.29c0-.026.005-.048,0-.075-.254-.76-1.592-.533-1.5.3a1.038,1.038,0,0,0,.049.313l-.34.127c-.1-.682-1.125-.163-1.1.406l-1.092.405c-.082-.177-.172-.373-.282-.6-.655-.032-.721-.271-.78-.583l1.022-1.164c.227.143.621.008.546-.325a.357.357,0,0,0-.047-.243l.1-.114a.453.453,0,0,0,.764-.429.265.265,0,0,0-.121-.3L29.9,41c.3.584,1.338.3,1.276-.5a.522.522,0,0,0-.33-.573l.366-.416a.892.892,0,0,0,1.6-.674.646.646,0,0,0-.347-.75l.373-.425a2.255,2.255,0,0,0,.915.707c.832-.284,1.789-.979,1.505-1.8a1.234,1.234,0,0,0-.155-.668L38.774,31.4a1.162,1.162,0,0,0,1.111,0c-.089-.295.448-.442.225-.72-.012-.214.417-.29.577-.473a67.717,67.717,0,0,0,7.8-6.374A103.682,103.682,0,0,0,64.451,7.587a2.741,2.741,0,0,0,1.76.444c1.183.017,2.592-.477,2.92-1.73-.9.691-1.984,1.66-3.313,1.368.622,0,3.927-2.8,2.484-2.445-.454.526-.621,1.071-1.259,1.266-.693.3-1.312,1.246-1.969.837a11.324,11.324,0,0,0,2.317-2.484C68.543,3,65.874,6.2,65.463,6.5a1.725,1.725,0,0,0-.406.262c.676-.957.549-.96-.486.4-.065-.03-.114-.193-.192-.614a21.813,21.813,0,0,0,1.778-3.21c-1.14.528-1.486,2.1-1.921,3.178-.374.563-.162-1.093-.2-1.381A17.571,17.571,0,0,1,65.122,2.7c-1.259.508-1.384,2.382-1.522,3.625-.578-.518-.359-1.343-.644-2,.092-.516.595-1.205.538-1.668-1.6,1.317-.75,3.755.823,4.841-.075.1-.145.193-.227.3-.024-1.642-6.416,6.75-7.278,7.4-3.533,3.4-6.906,6.722-10.792,9.813a38.146,38.146,0,0,1-7.477,5.5.744.744,0,0,0,.18.857l-3.979,4.167a1.564,1.564,0,0,0-2.2,1.431,1.265,1.265,0,0,0,.25.622l-.435.458a1.116,1.116,0,0,0-1.242.473,1.008,1.008,0,0,0,0,.829l-.5.521a.711.711,0,0,0-.8.755.6.6,0,0,0,.014.076l-.342.359a.536.536,0,0,0-.422.445l-.348.365a.5.5,0,0,0-.234.246l-1.042,1.1a1.66,1.66,0,0,0-1.129-.781l.32-.9a.131.131,0,0,0,.065.01c.2-.207.4-.6.216-.8l.068-.191.01,0c.371-.027.577-.635.265-.777l.113-.318a.613.613,0,0,0,.067.013c.433.052.526-.577.2-.764l.056-.155A.357.357,0,0,0,28,38.463c.333-.189.343-.739.031-.868l.108-.3c.212.125.5.091.776-.292.223-.282-.052-.51-.052-.794.525-.253,1.351-.574,1.225-1.363-.2-2.469-3.536-.2-1.6,1.228a.642.642,0,0,0-.444,1.154l-.14.347a.392.392,0,0,0-.078,0c-.571-.077-.564.654-.287.91l-.075.186c-.38.058-.532.523-.29.718l-.147.366c-.391-.009-.468.408-.263.653l-.09.222c-.34-.008-.374.391-.268.666l-.379.939c-.33-.167-.778-.177-1.036-.4a27.573,27.573,0,0,1,.54-2.881c.524-1.971,1.006-4,1.6-5.938a81.575,81.575,0,0,1,6.95-15.6A85.431,85.431,0,0,1,43.373,6.691c.814.65,3.628,1.773,3.793.117-.666.423-1.806.723-2.419.206A3.551,3.551,0,0,0,46.925,6.2c1.527-1.555-1.852.941-2.64.472-.431-.239,1.173-.573,1.413-.881.581-.271,2.062-1.966.641-.948C44.64,6.1,42.717,7.283,45,4.378c.407-1-1.145.926-1.487,1.323a3.046,3.046,0,0,1,.859-2.011c1.156-1.126-.149-.6-.578.138a7.525,7.525,0,0,0-.655,1.461,2.79,2.79,0,0,1,.7-2.736c-.6-.15-1,.729-1.11,1.244a3.89,3.89,0,0,0,.407,2.4c-.258.271-.69.5-.966.817a44.172,44.172,0,0,0-7.924,9.128c-4.894,7.131-7.749,15.548-9.727,23.81a2.076,2.076,0,0,0-.071.4l.47-4.816a.633.633,0,0,0,.064-.463c-.006-.007-.012-.008-.018-.015L25,34.632a.506.506,0,0,0,.088-.9l.032-.334a.609.609,0,0,0,.33-.065c.4-.275.36-1.035-.19-1.072-.011,0-.018.007-.03.007l.021-.213.009,0a1,1,0,0,0,.559-1.723.912.912,0,0,0-.39-.108l.041-.411c.038.015.073.034.114.046,1.456-.134,2.113-2.743.43-2.7-1.736-.191-1.864,2.012-.651,2.614l-.084.464c-.8.118-1.185,1.459-.316,1.761l-.071.4a.6.6,0,0,0-.138.766l-.116.643a.53.53,0,0,0-.125.7l-.089.493a.4.4,0,0,0-.1.532l-.081.45c-.286.072-.549.418-.124.693.042.263-.726.571-.3.9A.644.644,0,0,0,24,37.6l-.029.225a.4.4,0,0,0-.3.207c-.095.311.275.628.155.993a.272.272,0,0,0,.042.012l-.037,1.742c-.1-.1-.227-.115-.2.156-.019.18,0,.339.186.356l.008-.006-.011.521a.6.6,0,0,1-.455-.408c-.554-2.763-.378-5.594-.549-8.294a31.23,31.23,0,0,1,.685-6.892c.318-1.339-.086-2.679.55-3.845a37.248,37.248,0,0,1,4.687-12.156,27.64,27.64,0,0,1,3.914-5.184c1.447-2.068-.857-.668-1.376.287-5.04,6.235-7.437,13.005-8.663,20.447a66.1,66.1,0,0,0-.475,9.8c.172,1.159-.055,2.417.211,3.6a4.835,4.835,0,0,1,.051,2.571l-.41-1.162c.2-.361-.15-.665-.553-.779L21.42,39.7c.161-.432.554-1.2-.124-1.3l-.081-.848a.685.685,0,0,0,.169-.494.513.513,0,0,0-.263-.479L21,35.3a.448.448,0,0,0-.043-.454l-.066-.686a.593.593,0,0,0,.154-.467.414.414,0,0,0-.242-.451l-.047-.491a1.049,1.049,0,0,0,.493-.861.771.771,0,0,0-.651-.8l-.063-.659a1.632,1.632,0,0,0,1.036-1.887c-.364-1.4-2.691-.8-2.635.684.218,1.03.871,1.357,1.475,1.23l-.014.616a.893.893,0,0,0-.917.954c-.015.723.466.966.931.868l.043.3a.551.551,0,0,0-.5.635.529.529,0,0,0,.659.483l.058.415c-.57-.135-.84.953-.13,1a.376.376,0,0,0,.255-.111l.127.9a.735.735,0,0,0-.832.617.6.6,0,0,0,.994.533l.1.718c-.839-.016-.813.964-.2,1.334.106.3.441,1.994.81,1.632a.138.138,0,0,0,.023-.026l.4.707a1.353,1.353,0,0,1-.9.438,13.534,13.534,0,0,1-1.31-2.57c-.585-.524-.473-1.175-.8-1.824-.252-.434-.27-1.148-.748-1.108A19.4,19.4,0,0,0,18.05,33.8c-2.124-6.553-.908-13.844.625-20.3.155-.376.1-.855.314-1.186.386-.081-.142-.314.055-.485a2.316,2.316,0,0,0,.573-1.186c.358-.434-.274-.432.25-.655A14.543,14.543,0,0,0,20.926,7.3c.624-1.059-.332-1.292-.7-.215-.768,1.805-1.391,3.615-1.938,5.368a43.118,43.118,0,0,0-1.623,7A36.6,36.6,0,0,0,20.7,42.979l-2.3,1.313a18.452,18.452,0,0,1-2.526-5.168,38.287,38.287,0,0,1-2.994-11.758c-.13-2.077.535-4.411.351-6.226.367.108.247-.746.329-.956-.044-.1-.238.033-.2-.141.21-.4.285-.894.475-1.3.665-2.369,1.034-4.784,1.808-7.111A60.816,60.816,0,0,1,18,6.01c.134-.7.174-1.345.323-2.058-.806-.917-2.508.911-3.362,1.363A31.08,31.08,0,0,0,5.532,15.728c-1.733,2.823-3.7,6.428-3.981,9.594.185.545-.339-.289-.3.1-.3.947-.477,1.917-.685,2.918A33.91,33.91,0,0,0,.568,40.663c.943,2.429.427,6.681,3.3,7.733l-.27.19c-.523.173-.77.4-.869-.311-.063-.225-.412-1.062-.273-.407a14.513,14.513,0,0,0,2.622,5.815A26.373,26.373,0,0,0,10.6,60.556c1.239,1.282,2.193,2.681,3.8,3.53,2.065.415.473.191,1.685,1.281,1.8.785,3.507,1.667,5.267,2.551,1.434.3,3,1.3,4.737,1.638,13.15,4,27.245-.549,36.241-10.57,1.029-1.621,2.2-2.943,3.233-4.537.538-2.962-5.11,1.406-6.486,1.63a40.83,40.83,0,0,1-9.477,2.252,35.881,35.881,0,0,1-22.632-5.449c-.07-.055-.141-.113-.212-.168L28.1,50.456a35.174,35.174,0,0,0,11.884,4.395c.486-.1,1.132.326,1.486-.121.4.6,1.191.453,1.84.532a12.694,12.694,0,0,1,2.284-.037c.082-.111-.017-.6.166-.3-.156.664.974.224,1.3.131.7.438,1.733-.042,2.579.005a30.713,30.713,0,0,0,5.553-.887c2.086-.675,4.213-1.109,6.286-1.827,3.12-.849,1.751-2.186,3.571-.449.731.6,2.237,1.139,2.977.321-.5-.289-1.161.182-1.682-.017-.307-.017-1.209-.466-.818-.579C67,52.173,69.834,50.5,67.233,51.215Zm-35.441-1.4c-.213.155-.378.022-.423-.208l.5.083A.593.593,0,0,0,31.792,49.816ZM14.649,13.124c-.026-.074-.1.043-.171.232C14.552,13.166,14.623,13.049,14.649,13.124Zm-.188.281a2.343,2.343,0,0,0-.188.951h0A2.331,2.331,0,0,1,14.461,13.405Zm-1.085,4.677c.011-.006.019-.019.029-.027C13.4,18.063,13.387,18.076,13.376,18.082Zm.117-.339a.7.7,0,0,1-.044.243.7.7,0,0,0,.044-.243c-.022-.093-.125-.058-.246.011C13.368,17.685,13.471,17.65,13.493,17.743Zm-.481.161a.834.834,0,0,1-.191.1h0A.855.855,0,0,0,13.012,17.9ZM24.431,41.649c-.041.023-.082.034-.123.053l.123-1.258C24.4,40.886,24.454,41.35,24.431,41.649ZM26.252,52.32a39.917,39.917,0,0,1-7.5-7.521l1.972-1.766c.4.718.818,1.428,1.271,2.117a24.014,24.014,0,0,0,6.028,5.259Z"/><path d="M64.345,24.361c.824-1.89-1.763,1.108-.5,2.7a3.03,3.03,0,0,0,3.494,1.718c.505.171,1.949-1.32.868-.871-.5.6-2.039.789-2.286.47.773-.177,2.529-.832,2.339-1.773-.7.565-1.538,1.447-2.564,1.431-1.185.139,2.288-1.525,2.129-2.372-.374-.121-3.415,3.236-2.943,1.631.316-1.058,1.689-1.7,1.811-2.7-.713.205-1.247,1.361-1.743,1.883-.682,1.45-.595.112-.173-.585.071-.628.732-.966.939-1.552-.227-.914-1.7,2.028-1.583,2.527A2.278,2.278,0,0,1,64.345,24.361Z"/><path d="M23.393,6.325c.857-.026,2.349-2.606,1.121-1.411-.124.82-1.167,1.032-2.017,1.2A4.5,4.5,0,0,0,24.228,4.2c.121-.866-.639.576-.838.706-.648.774-2.091,1.621-.9.087.3-.632,1.29-1.368.944-2.088-.779.441-1.109,2.754-2.115,2.8a5,5,0,0,1,.6-2.607c-.6-.534-.9,1.871-1.049,2.344-.623-1.116.042-2.064.173-3.191-.854-.263-.6,2.465-.764,2.919a2.668,2.668,0,0,1-.414-2.735c-.454-.534-.566.833-.524,1.195A3.091,3.091,0,0,0,23.393,6.325Z"/></svg>