<svg width="296" height="276" viewBox="0 0 296 276" fill="none" xmlns="http://www.w3.org/2000/svg">
<g clip-path="url(#clip0)">
<path d="M136.6 159.7C137.2 159 137.7 158.4 138.3 157.7C139.1 156.9 139.9 156 140.8 155.3C141.7 154.6 141.5 153.3 142.5 152.7C142.7 152.8 142.9 152.8 142.9 152.9C143 153.4 143.1 153.8 143.8 153.8C144.6 153.8 144.5 153.3 144.6 152.8C144.6 152.6 144.9 152.2 145.2 152.2C146.4 152 147.5 151.7 147.3 150.1C147.3 149.9 147.6 149.5 147.7 149.6C149.6 149.8 149.9 147.4 151.5 147.2C152.3 144.9 154.5 143.8 155.8 141.8C155.9 141.6 156.2 141.4 156.4 141.2C156.8 140.9 157.4 140.7 157.5 140.4C157.5 139.9 157.2 139.3 157 138.8C159.6 136.3 161.7 133.2 164.8 131.2C165.4 130.8 165.6 129.9 166.2 129.4C168.6 126.9 171.1 124.5 173.6 122.1C173.9 121.8 174.4 121.8 174.8 121.7C174.9 122 174.9 122.4 175 122.7C175.3 122.6 175.8 122.5 175.8 122.5C175.8 121.5 177.2 121.7 177.3 120.7C177.3 120.3 178.6 120.1 179.2 119.7C180 119.2 179.4 118.1 180.3 117.4C180.8 117 182.1 117.1 181.8 115.7C181.6 114.8 183.2 115 183.4 114C183.6 113.3 184.3 113 185.1 113.1C185.7 113.2 186 113.1 186.1 112.3C186.2 111.7 186.9 111.2 187.1 110.6C187.2 110.1 187.4 109.9 187.9 109.9C188.3 109.9 188.7 109.8 189.2 109.7C189.1 109.3 188.9 109 188.8 108.6C188.8 108.3 188.9 108 189.1 107.8C189.3 107.6 189.7 107.5 189.8 107.3C189.9 106.6 190.3 106.6 190.7 106.9C190.8 107 190.8 107.6 190.7 107.8C190.4 108.2 190.2 108.6 190.6 108.9C190.8 109 191.3 108.8 191.5 108.6C192.1 108.1 192.9 107.5 193 106.8C193.1 105.7 193.4 105.6 194.3 105.7C194.4 105.7 194.7 105.4 194.7 105.2C194.7 105 194.5 104.7 194.3 104.7C193.8 104.6 193.2 104.6 192.6 104.5C193.1 103.9 193.8 103.4 194.1 103.6C195 104.2 195.6 103.7 196.3 103.3C197.2 102.7 198.6 102.7 199 101.6C199.6 99.7 201.9 98.9 202.3 96.9C202.3 96.8 202.6 96.8 202.7 96.7C203.9 95.9 204.8 95 205.5 93.8C206 92.9 207 92.2 208 91.6C209.3 91 210.7 90.3 210.8 88.5C210.8 88.2 211.5 87.8 211.9 87.6C212.6 87.1 212.6 87.1 211.7 86.5C211.5 86.4 211.3 86.2 211.3 86C211.3 85.8 211.5 85.5 211.7 85.5C212.5 85.4 213.5 85.8 213.7 84.5C213.7 84.5 214.1 84.4 214.2 84.5C214.9 85.1 214.8 84.9 215.2 84.1C215.7 82.9 216 81.2 217.9 81.2C218.6 81.2 218 80.8 217.9 80.6C217.8 80.4 217.7 80 217.8 79.9C218.7 79.3 218.9 78.4 218.8 77.3C218.8 77.2 219.2 77 219.4 77C219.6 77 219.8 77.3 219.9 77.5C220 77.8 220.8 79.5 221 79.7C221.2 80.9 220.6 81.9 219.9 82.7C218.9 83.7 217.8 84.7 216.9 85.7C215.3 87.5 213.6 89.3 212.3 91.3C212.2 91.4 212 91.6 211.9 91.7C209.6 94.1 207.4 96.6 205.1 99.1C202.8 101.6 200.6 104.3 198 106.6C196.1 108.3 194.7 110.4 193 112.3C191.1 114.3 189.1 116.2 187.1 118.2C185.2 120.1 183 121.8 181.5 123.9C180.1 125.8 178.5 127.3 176.8 128.8C174.2 131.2 172.3 134.2 169.2 136.1C168.4 136.6 168 137.8 167.3 138.5C161.4 143.7 156 149.6 150.2 154.9C147.5 157.4 145 160.2 142.1 162.5C139.9 164.2 138.3 166.6 135.8 167.9C134.6 169.8 132.7 170.8 131.3 172.4C129.1 174.8 126.8 177 124 178.7C123.5 179 123.1 179.6 122.7 180C120 182.5 117.4 185.1 114.6 187.5C112 189.8 109.3 192 106.7 194.3C104 196.7 101.2 199.1 98.4 201.5C96 203.6 93.6 205.8 91.1 207.8C88.7 209.7 86.2 211.5 83.8 213.5C82.4 214.7 81.2 216 79.7 217.1C77.1 219.1 74.7 221.4 72.2 223.5C69.4 225.9 66.5 228.3 63.6 230.5C60.7 232.6 58 234.9 55.1 237C52.8 238.6 50.7 240.7 48.5 242.4C45.8 244.5 43.1 246.5 40.3 248.6C39.3 249.4 38.3 250.2 37.3 251C35.4 252.5 33.7 254.2 31.7 255.5C29.4 257 27.3 258.7 25.2 260.4C24.1 261.3 22.8 262 21.7 263C20 264.5 18.3 265.9 16.5 267.2C16.1 267.5 15.9 268.3 15.5 268.5C14.5 269 14.7 270.1 14.1 270.7C13.4 271.3 12.2 271.7 12 272.4C11.5 273.6 11.1 274.4 9.60001 274.4C9.40001 274.4 9.20001 274.8 9.00001 275C7.90001 276.5 7.20001 276.6 5.60001 276C3.40001 275.1 1.80001 273.7 0.800007 271.4C7.48038e-06 269.7 0.500008 268.5 1.40001 267.2C1.90001 266.6 2.50001 266 3.10001 265.5C3.80001 264.9 3.90001 264.3 3.60001 263.4C3.30001 262.6 3.70001 262.4 4.60001 262.8C5.20001 263.1 5.70001 263.2 6.30001 262.8C7.50001 261.9 8.90001 261.8 10.2 262C11.9 262.3 13.1 261.5 14.2 260.6C15.2 259.9 16 259.2 17.2 258.7C18.3 258.2 19.1 257.3 20 256.5C22.6 254.2 25.2 252 28 250C30.1 248.6 32 246.7 34 245.1C36.6 243 39.2 240.8 41.9 238.9C43.2 238 44.5 236.9 45.7 236C48 234.2 50.3 232.4 52.6 230.7C53.7 229.9 54.7 229 55.8 228.1C58.3 226 60.8 223.9 63.5 222C64.9 221 66.1 219.7 67.5 218.6C70.3 216.5 72.7 213.9 75.7 211.9C77 211.1 78 209.8 79.3 208.9C81 207.7 82.4 206.1 84 204.8C86.7 202.6 89.4 200.4 91.9 198C92.7 197.3 93.7 196.7 94.5 195.9C95.1 195.2 96.2 195.8 96.8 194.8C97.2 194.1 97.8 193.3 98.5 193.1C100.3 192.7 101.2 191.3 102.4 190.2C103.6 189.1 104.7 188 105.8 186.8C106.3 186.2 106.6 185.3 107.2 185C108 184.6 108.6 184 109.2 183.4C109.8 182.9 110.1 182 111 182C111.6 180.1 113.6 179.6 114.8 178.3C116.9 176.1 119.3 174.1 121.6 172C121.8 171.8 122.2 171.9 122.6 171.8C122.9 172.2 123.2 172.7 123.6 172.8C123.8 172.9 124.3 172.4 124.6 172.2C125 171.9 125.5 171.3 125.8 171.4C127 171.6 127.3 170.1 128.6 170.2C129.6 170.2 129.8 168.7 130.2 167.8C130.3 167.5 130.7 167.3 130.9 167C132 165.9 132.4 165.4 132.7 163.8C133.2 163.9 133.7 163.9 134.2 164C134.4 164 134.7 164.2 134.7 164.1C135.5 162.7 137.1 161.8 136.6 159.7Z" fill="#30174F"/>
<path d="M253.8 44.8C254.8 45.3 255.8 44.7 256.5 45.6C256.6 45.7 257 45.7 257.3 45.6C259.8 45 262.5 44.9 264.8 43.6C268.4 41.7 272.1 39.8 275.2 37.1C276.3 36.1 277.5 35.2 278.5 34.2C278.8 33.9 279.3 34 279.6 33.8C280 33.5 280.7 33.1 280.6 32.8C280.4 31.4 281.3 31.6 282.1 31.6C283.3 31.6 282.6 32 282.3 32.4C282.1 32.7 282.2 33.1 282.3 33.5C282.4 34.2 282.2 34.6 281.4 35C280.6 35.4 280.2 36.4 279.7 37.2C278.7 38.4 277.3 39.3 276.2 40.5C275.2 41.6 273.5 42 272.2 42.9C271.1 43.7 269.9 44.3 268.8 45C266.9 46 264.7 46.4 262.8 47.3C262.3 47.5 261.9 47.7 261.5 48.3C262.4 48.3 263.4 48.4 264.3 48.4C265.2 48.4 266.1 48.4 267 48.4C271.7 48.6 275.9 47 280.3 45.5C283.2 44.5 285.4 42.7 287.8 41.1C288.5 40.6 289 39.7 289.6 38.9C290.7 37.4 292.2 36.2 293.5 34.9C293.7 34.7 294.3 34.5 294.6 34.6C295.2 34.9 295.4 35.5 295.3 36.2C295.3 36.3 295.3 36.4 295.2 36.4C293.8 37.1 293.9 38.8 292.9 39.8C291.2 41.5 289.5 43.3 287.4 44.7C285.1 46.2 282.7 47.4 280.7 49.3C280.2 49.7 279.5 50.1 278.9 50C276.4 49.9 274 51 271.6 51.1C269.1 51.2 266.6 51.1 264.1 51.1C260.8 51.1 257.7 50.2 254.6 49.4C252.2 48.7 250.2 47 248 46C247.8 45.9 247.8 45.7 247.6 45.6C244.7 44.7 243.2 42.3 241.3 40.3C238.1 37.1 235.9 33.4 234.7 29.1C234.3 27.7 233.3 26.6 233.5 25C233.6 23.8 233.1 22.4 232.6 21.2C232.4 20.8 232.4 20 232.6 19.6C233.4 18.1 232.9 16.5 233.1 15C233.5 12.3 233.6 9.60001 234.9 7.20001C235.5 6.00001 235.9 4.70001 236.4 3.60001C237.1 2.10001 238.1 0.900014 239.9 0.600014C240.2 0.600014 240.5 0.400014 240.8 0.400014C240.9 0.800014 241.1 1.30001 241 1.60001C240.4 2.90001 239.4 4.00001 239.1 5.30001C238.9 6.20001 237.5 5.90001 237.8 7.20001C238 7.90001 237.6 8.80001 237.3 9.60001C237 10.4 236.6 11.1 236.3 11.8C236.3 11.9 236.3 12 236.3 12.1C236.3 15 235.4 17.8 235.8 20.7C236.2 23.4 236.6 26 237.6 28.5C237.9 29.3 238.1 30.1 238.4 30.9C238.7 31.7 239.1 32.4 239.6 33.1C240.3 34.2 241.1 35.2 242.2 36.7C242.2 35.2 242.3 34.3 242.3 33.3C242.3 32.4 242.2 31.5 242.3 30.6C242.5 28.9 242.1 27.2 242.7 25.4C243.2 24 243.5 22.3 243.7 20.8C244 18.8 245.1 17.2 245.5 15.3C245.9 13.6 246.7 11.9 247.6 10.3C249.2 7.40001 250.8 4.70001 252.5 1.90001C252.9 1.30001 253.5 0.800014 254 0.400014C254.5 -0.0999856 255.1 1.44243e-05 255.6 0.500014C256.2 1.00001 256.3 1.70001 255.9 2.10001C254.3 3.80001 253.5 5.90001 252.3 7.90001C250.8 10.4 249.4 12.9 248.4 15.7C247.8 17.3 247.1 18.7 246.7 20.4C246.2 22.5 245.6 24.6 245.1 26.7C244.6 28.6 244.7 30.5 244.7 32.4C244.6 34.3 245 36.1 245.7 37.9C246 38.6 245.3 38.8 245.3 39.2C245.3 39.6 244.9 40.3 245.8 40.4C246.3 40.5 246.7 41.1 247.2 40.3C247.4 40 247.7 39.5 247.9 40.4C248 40.9 248.7 41.3 248.9 41.9C249.1 42.6 249.4 43.1 250.1 43.1C250.8 43.1 251.6 43.3 252.4 42.7C255.2 40.7 258.1 38.8 260.5 36.3C261.6 35.2 262.7 34 263.8 32.9C264.9 31.8 266.2 30.7 267.2 29.5C269.3 26.8 271.9 24.5 273.7 21.5C274.6 20.1 275.8 19 276.9 17.7C277.2 17.4 277.7 16.9 277.9 16.9C279.3 17.3 279.5 16 280.2 15.4C280.4 15.3 280.7 15.2 280.9 15.3C281.1 15.4 281.2 15.8 281.1 16C280.9 16.6 280.8 17.3 280.4 17.8C278.3 20.5 276 23.1 274 25.9C271 30.1 267.3 33.5 263.8 37.2C261.3 39.9 257.8 42.9 254.8 44.5C254.7 44.5 254.3 44.6 253.8 44.8Z" fill="#30174F"/>
<path d="M220.7 79.4C220.5 79.2 219.7 77.5 219.6 77.2C219.5 77 219.3 76.7 219.1 76.7C218.9 76.7 218.5 76.9 218.5 77C218.6 78 218.4 78.9 217.5 79.6C217.4 79.7 217.5 80.1 217.6 80.3C217.7 80.5 218.3 80.9 217.6 80.9C215.6 80.9 215.4 82.6 214.9 83.8C214.5 84.6 214.6 84.8 213.9 84.2C213.8 84.1 213.4 84.2 213.4 84.2C213.2 85.5 212.2 85.2 211.4 85.2C211.2 85.2 211 85.5 211 85.7C211 85.9 211.2 86.1 211.4 86.2C212.2 86.8 212.2 86.8 211.6 87.3C211.2 87.6 210.5 87.9 210.5 88.2C210.4 90 209 90.7 207.7 91.3C206.6 91.8 205.7 92.5 205.2 93.5C204.5 94.8 203.6 95.7 202.4 96.4C202.3 96.5 202 96.5 202 96.6C201.6 98.7 199.3 99.4 198.7 101.3C198.3 102.4 196.9 102.4 196 103C195.4 103.4 194.8 103.9 193.8 103.3C193.5 103.1 192.7 103.6 192.3 104.2C192.9 104.2 193.4 104.2 194 104.4C194.2 104.4 194.4 104.7 194.4 104.9C194.4 105.1 194.1 105.4 194 105.4C193.1 105.3 192.8 105.5 192.7 106.5C192.7 107.1 191.8 107.7 191.2 108.3C191 108.5 190.5 108.7 190.3 108.6C189.8 108.3 190.1 107.9 190.4 107.5C190.5 107.3 190.5 106.7 190.4 106.6C190 106.4 189.6 106.4 189.5 107C189.5 107.2 189 107.3 188.8 107.5C188.6 107.7 188.5 108.1 188.5 108.3C188.5 108.7 188.7 109 188.9 109.4C188.5 109.5 188.1 109.6 187.6 109.6C187.1 109.6 186.9 109.8 186.8 110.3C186.6 110.9 185.9 111.4 185.8 112C185.7 112.8 185.4 112.9 184.8 112.8C184 112.7 183.3 113 183.1 113.7C182.9 114.7 181.3 114.5 181.5 115.4C181.8 116.8 180.5 116.7 180 117.1C179.1 117.7 179.7 118.9 178.9 119.4C178.3 119.8 177 120 177 120.4C176.9 121.4 175.5 121.2 175.5 122.2C175.5 122.3 175 122.4 174.7 122.4C174.6 122.1 174.6 121.7 174.5 121.4C174.4 120.8 174.7 120.5 175 120C179.5 114.9 184.5 110.2 189.2 105.2C191.9 102.3 194.8 99.6 197.3 96.5C199.3 94.1 201.6 92.1 203.6 89.8C206.1 86.7 209.2 84 211.5 80.8C213.4 78.3 215.8 76.4 217.8 74.1C218.4 73.5 218.8 72.8 219.3 72.1C219.5 71.8 219.5 71.5 219.7 71.2C220.4 70.2 221.7 69.8 222.2 68.5C222.7 67.4 223.7 66.6 224.5 65.7C225.2 64.9 226.1 64.2 226.6 63.1C226.9 62.5 227.5 61.7 228.5 61.9C228.6 62.1 228.6 62.3 228.7 62.3C229.7 62.9 229.9 63.5 229.2 64.1C228.9 64.4 228.2 64.5 228 64.9C227.7 65.7 228.7 65.4 228.9 65.8C229.6 67.3 228.3 69.6 226.5 69.9C226.1 70 225.4 69.5 225.3 70.4C225.2 70.9 224.9 71.3 224.8 71.8C224.7 72.6 224.8 73.4 224.8 74.2C224.7 74.3 224.5 74.3 224.4 74.4C224.5 74.5 224.7 74.6 224.8 74.8C224.8 75.2 225 75.9 224.8 76.1C223.7 77.6 222.5 78.9 220.7 79.4Z" fill="#F2F2F3"/>
<path d="M225 74.5001C225 73.7001 224.9 72.9001 225 72.1001C225.1 71.6001 225.4 71.2001 225.5 70.7001C225.7 69.8001 226.3 70.3001 226.7 70.2001C228.5 69.9001 229.8 67.6001 229.1 66.1001C228.9 65.7001 227.8 66.1001 228.2 65.2001C228.4 64.8001 229 64.7001 229.4 64.4001C230.1 63.7001 229.9 63.2001 228.9 62.6001C228.8 62.5001 228.8 62.3001 228.7 62.2001C228.8 61.9001 228.7 61.4001 228.9 61.2001C230 60.5001 230.6 59.4001 231.5 58.5001C231.8 58.3001 232.1 58.0001 232.2 57.7001C232.7 56.9001 233 56.0001 233.6 55.3001C234.1 54.7001 235.4 54.4001 235.5 53.8001C235.7 52.8001 236.5 52.7001 236.9 52.6001C238.1 52.4001 238.5 51.1001 239.6 50.7001C240.3 50.5001 240.9 49.4001 241.3 48.5001C241.6 47.8001 241.5 47.0001 241.6 46.1001C243.6 45.5001 244.9 46.9001 246.1 48.2001C246.6 48.7001 246.3 49.9001 245.8 50.6001C245 51.5001 243.8 52.1001 243.5 53.4001C241.5 54.9001 240.6 57.3001 239 59.1001C236.6 61.8001 234.2 64.6001 231.8 67.4001C229.9 69.5001 228.3 71.9001 226.3 73.9001C226 74.4001 225.6 74.7001 225 74.5001Z" fill="#30174F"/>
<path d="M248.8 39.2001C248.7 39.1001 248.3 38.8001 247.8 38.8001C247.1 38.7001 246.9 38.6001 247.1 37.7001C248.7 31.8001 251.7 26.5001 254.4 21.2001C256.8 16.6001 259.8 12.4001 262.5 7.90011C262.8 7.40011 263.4 7.00011 263.8 6.60011C264.3 6.10011 264.6 6.00011 265.3 6.50011C266.3 7.20011 266.5 7.20011 265.8 8.40011C264.6 10.4001 263.3 12.4001 262 14.3001C260.4 16.7001 258.9 19.3001 257.5 21.8001C256.1 24.3001 254.7 26.7001 253.5 29.2001C252.2 31.9001 251.4 34.7001 250.1 37.4001C250 37.7001 250.1 38.1001 250.1 38.5001C250.1 39.2001 250.1 39.2001 248.8 39.2001Z" fill="#30174F"/>
<path d="M157 138.8C157.2 139.3 157.5 139.9 157.5 140.4C157.5 140.7 156.8 140.9 156.4 141.2C156.2 141.4 156 141.5 155.8 141.8C154.5 143.7 152.4 144.9 151.5 147.2C149.9 147.4 149.6 149.7 147.7 149.6C147.6 149.6 147.3 150 147.3 150.1C147.5 151.8 146.4 152 145.2 152.2C145 152.2 144.7 152.6 144.6 152.8C144.5 153.3 144.6 153.8 143.8 153.8C143 153.8 143 153.4 142.9 152.9C142.9 152.8 142.6 152.8 142.5 152.7C142.6 152.4 142.6 151.8 142.7 151.8C143.7 151.6 144.1 150.8 144.7 150.3C147.9 147.1 151.1 143.9 154.3 140.7C155.1 139.9 155.9 139.2 157 138.8Z" fill="#F2F2F3"/>
<path d="M132.3 163.5C131.9 165.1 131.6 165.6 130.5 166.7C130.2 166.9 129.9 167.2 129.8 167.5C129.4 168.4 129.2 169.9 128.2 169.9C126.9 169.9 126.6 171.3 125.4 171.1C125 171 124.6 171.7 124.2 171.9C123.9 172.1 123.4 172.6 123.2 172.5C122.8 172.3 122.5 171.8 122.2 171.5C123.5 169.5 125.5 168.1 127.4 166.7C127.8 166.4 128.2 166 128.6 165.6C128.7 165.5 128.8 165.2 128.8 165.2C130.5 165.7 130.7 163.2 132.3 163.5Z" fill="#F2F2F3"/>
<path d="M136.6 159.7C137.1 161.7 135.5 162.6 134.4 163.8C134.3 163.9 134 163.7 133.9 163.7C133.4 163.6 132.9 163.6 132.4 163.5C132.3 162.9 132.4 162.5 133 162.1C134.1 161.4 135.3 161 136 159.7C135.9 159.6 136.3 159.7 136.6 159.7Z" fill="#F2F2F3"/>
<path d="M225 75.1C224.9 75 224.7 74.9 224.6 74.7C224.7 74.6 224.9 74.6 225 74.5C225 74.7 225 74.9 225 75.1Z" fill="#30174F"/>
</g>
<defs>
<clipPath id="clip0">
<rect width="295.2" height="275.8" fill="white"/>
</clipPath>
</defs>
</svg>
